<svg width="46" height="46" viewBox="0 0 46 46" fill="none" xmlns="http://www.w3.org/2000/svg">
<path d="M3.15113e-06 23C3.01205e-06 26.1817 0.604133 29.1717 1.8124 31.97C3.02067 34.7683 4.65903 37.2025 6.7275 39.2725C8.7975 41.3425 11.2317 42.9809 14.03 44.1876C16.8283 45.3943 19.8183 45.9985 23 46C26.1817 46 29.1717 45.3959 31.97 44.1876C34.7683 42.9793 37.2025 41.341 39.2725 39.2725C41.3425 37.2025 42.9809 34.7683 44.1876 31.97C45.3943 29.1717 45.9985 26.1817 46 23C46 19.8183 45.3959 16.8283 44.1876 14.03C42.9793 11.2317 41.341 8.7975 39.2725 6.7275C37.2025 4.6575 34.7683 3.01837 31.97 1.8101C29.1717 0.601835 26.1817 -0.00153205 23 1.14041e-06C19.8183 1.00133e-06 16.8283 0.604131 14.03 1.8124C11.2317 3.02066 8.7975 4.65903 6.7275 6.72749C4.6575 8.79749 3.01837 11.2317 1.8101 14.03C0.601837 16.8283 -0.00153004 19.8183 3.15113e-06 23ZM20.7 22.54L18.63 24.61C18.2083 25.0317 17.6717 25.2425 17.02 25.2425C16.3683 25.2425 15.8317 25.0317 15.41 24.61C14.9883 24.1883 14.7775 23.6517 14.7775 23C14.7775 22.3483 14.9883 21.8117 15.41 21.39L21.39 15.41C21.85 14.95 22.3867 14.72 23 14.72C23.6133 14.72 24.15 14.95 24.61 15.41L30.59 21.39C31.0117 21.8117 31.2225 22.3483 31.2225 23C31.2225 23.6517 31.0117 24.1883 30.59 24.61C30.1683 25.0317 29.6317 25.2425 28.98 25.2425C28.3283 25.2425 27.7917 25.0317 27.37 24.61L25.3 22.54L25.3 29.9C25.3 30.5517 25.0792 31.0983 24.6376 31.5399C24.196 31.9815 23.6501 32.2015 23 32.2C22.3483 32.2 21.8017 31.9792 21.3601 31.5376C20.9185 31.096 20.6985 30.5501 20.7 29.9L20.7 22.54Z" fill="#9D9D9D" fill-opacity="0.5"/>
</svg>
