<svg width="46" height="46" viewBox="0 0 46 46" fill="none" xmlns="http://www.w3.org/2000/svg">
<path d="M38.3333 34.35H7.66667C6.69534 34.35 5.9 33.5547 5.9 32.5833C5.9 31.612 6.69534 30.8167 7.66667 30.8167H38.3333C39.3047 30.8167 40.1 31.612 40.1 32.5833C40.1 33.5547 39.3047 34.35 38.3333 34.35ZM38.3333 24.7667H7.66667C6.69534 24.7667 5.9 23.9713 5.9 23C5.9 22.0287 6.69534 21.2333 7.66667 21.2333H38.3333C39.3047 21.2333 40.1 22.0287 40.1 23C40.1 23.9713 39.3047 24.7667 38.3333 24.7667ZM7.66667 15.1833C6.69534 15.1833 5.9 14.388 5.9 13.4167C5.9 12.4453 6.69534 11.65 7.66667 11.65H38.3333C39.3047 11.65 40.1 12.4453 40.1 13.4167C40.1 14.388 39.3047 15.1833 38.3333 15.1833H7.66667Z" fill="#FFF9F9" fill-opacity="0.7" stroke="black" stroke-width="0.3"/>
</svg>
